<mxfile host="app.diagrams.net" modified="2021-05-27T17:07:31.290Z" agent="5.0 (Windows NT 10.0; Win64; x64) AppleWebKit/537.36 (KHTML, like Gecko) Chrome/90.0.4430.212 Safari/537.36" etag="UMq1VZaELTd3aUC9Ks7P" version="14.6.13" type="github">
  <diagram id="MQSxJ_IVGgAa9lwZokSd" name="Page-1">
    <mxGraphModel dx="434" dy="213" grid="1" gridSize="10" guides="1" tooltips="1" connect="1" arrows="1" fold="1" page="1" pageScale="1" pageWidth="850" pageHeight="1100" math="1" shadow="0">
      <root>
        <mxCell id="0" />
        <mxCell id="1" parent="0" />
        <mxCell id="b9tD3Ob-u22sIeqJf-4t-73" value="" style="endArrow=classic;html=1;endSize=7;strokeWidth=1;exitX=1;exitY=0.5;exitDx=0;exitDy=0;" edge="1" parent="1">
          <mxGeometry width="50" height="50" relative="1" as="geometry">
            <mxPoint x="35" y="89.05" as="sourcePoint" />
            <mxPoint x="67" y="89" as="targetPoint" />
          </mxGeometry>
        </mxCell>
        <mxCell id="b9tD3Ob-u22sIeqJf-4t-96" value="&lt;font color=&quot;#ffffff&quot;&gt;C&lt;/font&gt;" style="rounded=1;whiteSpace=wrap;html=1;labelBackgroundColor=none;noLabel=1;fontColor=none;fillColor=none;dashed=1;" vertex="1" parent="1">
          <mxGeometry x="164" y="53.47" width="58" height="73.05" as="geometry" />
        </mxCell>
        <mxCell id="b9tD3Ob-u22sIeqJf-4t-74" value="" style="endArrow=classic;html=1;endSize=7;strokeWidth=1;" edge="1" parent="1">
          <mxGeometry width="50" height="50" relative="1" as="geometry">
            <mxPoint x="146" y="90" as="sourcePoint" />
            <mxPoint x="179" y="90" as="targetPoint" />
          </mxGeometry>
        </mxCell>
        <mxCell id="b9tD3Ob-u22sIeqJf-4t-66" value="" style="shape=trapezoid;perimeter=trapezoidPerimeter;whiteSpace=wrap;html=1;fixedSize=1;rotation=90;fillColor=#e1d5e7;strokeColor=#9673a6;size=23.120000000000005;" vertex="1" parent="1">
          <mxGeometry x="66.88" y="52.89" width="81.03" height="78.09" as="geometry" />
        </mxCell>
        <mxCell id="b9tD3Ob-u22sIeqJf-4t-68" value="" style="rounded=0;whiteSpace=wrap;html=1;fillColor=#e1d5e7;strokeColor=#9673a6;" vertex="1" parent="1">
          <mxGeometry x="13" y="26" width="24" height="120" as="geometry" />
        </mxCell>
        <mxCell id="b9tD3Ob-u22sIeqJf-4t-70" value="" style="rounded=0;whiteSpace=wrap;html=1;fillColor=#dae8fc;strokeColor=#6c8ebf;" vertex="1" parent="1">
          <mxGeometry x="353" y="25" width="22" height="120" as="geometry" />
        </mxCell>
        <mxCell id="b9tD3Ob-u22sIeqJf-4t-71" value="&lt;font style=&quot;font-size: 14px&quot; color=&quot;#ffffff&quot;&gt;Encoder (g&lt;sub&gt;e&lt;/sub&gt;)&lt;/font&gt;" style="text;html=1;strokeColor=none;fillColor=none;align=center;verticalAlign=middle;whiteSpace=wrap;rounded=0;" vertex="1" parent="1">
          <mxGeometry x="82.44" y="81" width="40" height="20" as="geometry" />
        </mxCell>
        <mxCell id="b9tD3Ob-u22sIeqJf-4t-77" value="&lt;font style=&quot;font-size: 14px&quot;&gt;X&lt;/font&gt;" style="text;html=1;strokeColor=none;fillColor=none;align=center;verticalAlign=middle;whiteSpace=wrap;rounded=0;" vertex="1" parent="1">
          <mxGeometry x="9" y="79" width="27" height="20" as="geometry" />
        </mxCell>
        <mxCell id="b9tD3Ob-u22sIeqJf-4t-79" value="&lt;font style=&quot;font-size: 14px&quot;&gt;Y&lt;/font&gt;" style="text;html=1;strokeColor=none;fillColor=none;align=center;verticalAlign=middle;whiteSpace=wrap;rounded=0;" vertex="1" parent="1">
          <mxGeometry x="350" y="75" width="27" height="20" as="geometry" />
        </mxCell>
        <mxCell id="b9tD3Ob-u22sIeqJf-4t-82" value="" style="shape=trapezoid;perimeter=trapezoidPerimeter;whiteSpace=wrap;html=1;fixedSize=1;rotation=-90;fillColor=#dae8fc;strokeColor=#6c8ebf;size=23.120000000000005;" vertex="1" parent="1">
          <mxGeometry x="240" y="50.95" width="81.03" height="78.09" as="geometry" />
        </mxCell>
        <mxCell id="b9tD3Ob-u22sIeqJf-4t-83" value="" style="endArrow=classic;html=1;endSize=7;strokeWidth=1;exitX=1;exitY=0.5;exitDx=0;exitDy=0;" edge="1" parent="1">
          <mxGeometry width="50" height="50" relative="1" as="geometry">
            <mxPoint x="320.03" y="85.80000000000001" as="sourcePoint" />
            <mxPoint x="352.03" y="85.75" as="targetPoint" />
          </mxGeometry>
        </mxCell>
        <mxCell id="b9tD3Ob-u22sIeqJf-4t-85" value="" style="endArrow=classic;html=1;endSize=7;strokeWidth=1;" edge="1" parent="1">
          <mxGeometry width="50" height="50" relative="1" as="geometry">
            <mxPoint x="210" y="90" as="sourcePoint" />
            <mxPoint x="241" y="89.75" as="targetPoint" />
          </mxGeometry>
        </mxCell>
        <mxCell id="b9tD3Ob-u22sIeqJf-4t-86" value="&lt;span style=&quot;font-size: 14px&quot;&gt;Decoder (g&lt;sub&gt;d&lt;/sub&gt;)&lt;/span&gt;" style="text;html=1;strokeColor=none;fillColor=none;align=center;verticalAlign=middle;whiteSpace=wrap;rounded=0;" vertex="1" parent="1">
          <mxGeometry x="260.51" y="78" width="40" height="20" as="geometry" />
        </mxCell>
        <mxCell id="b9tD3Ob-u22sIeqJf-4t-95" value="" style="group" vertex="1" connectable="0" parent="1">
          <mxGeometry x="107" y="124" width="170" height="20" as="geometry" />
        </mxCell>
        <mxCell id="b9tD3Ob-u22sIeqJf-4t-91" value="&lt;span style=&quot;font-size: 14px&quot;&gt;For ideal case: X&amp;nbsp; &amp;nbsp; &amp;nbsp;Y&lt;/span&gt;" style="text;html=1;strokeColor=none;fillColor=none;align=center;verticalAlign=middle;whiteSpace=wrap;rounded=0;" vertex="1" parent="b9tD3Ob-u22sIeqJf-4t-95">
          <mxGeometry width="170" height="20" as="geometry" />
        </mxCell>
        <mxCell id="b9tD3Ob-u22sIeqJf-4t-92" value="" style="shape=image;verticalLabelPosition=bottom;labelBackgroundColor=#ffffff;verticalAlign=top;aspect=fixed;imageAspect=0;image=data:image/png,iVBORw0KGgoAAAANSUhEUgAAAgAAAAIACAMAAADDpiTIAAAAA3NCSVQICAjb4U/gAAAACXBIWXMAADGcAAAxnAF2iCTLAAAAGXRFWHRTb2Z0d2FyZQB3d3cuaW5rc2NhcGUub3Jnm+48GgAAAwBQTFRF////AAAAAAAAAAAAAAAAAAAAAAAAAAAAAAAAAAAAAAAAAAAAAAAAAAAAAAAAAAAAAAAAAAAAAAAAAAAAAAAAAAAAAAAAAAAAAAAAAAAAAAAAAAAAAAAAAAAAAAAAAAAAAAAAAAAAAAAAAAAAAAAAAAAAAAAAAAAAAAAAAAAAAAAAAAAAAAAAAAAAAAAAAAAAAAAAAAAAAAAAAAAAAAAAAAAAAAAAAAAAAAAAAAAAAAAAAAAAAAAAAAAAAAAAAAAAAAAAAAAAAAAAAAAAAAAAAAAAAAAAAAAAAAAAAAAAAAAAAAAAAAAAAAAAAAAAAAAAAAAAAAAAAAAAAAAAAAAAAAAAAAAAAAAAAAAAAAAAAAAAAAAAAAAAAAAAAAAAAAAAAAAAAAAAAAAAAAAAAAAAAAAAAAAAAAAAAAAAAAAAAAAAAAAAAAAAAAAAAAAAAAAAAAAAAAAAAAAAAAAAAAAAAAAAAAAAAAAAAAAAAAAAAAAAAAAAAAAAAAAAAAAAAAAAAAAAAAAAAAAAAAAAAAAAAAAAAAAAAAAAAAAAAAAAAAAAAAAAAAAAAAAAAAAAAAAAAAAAAAAAAAAAAAAAAAAAAAAAAAAAAAAAAAAAAAAAAAAAAAAAAAAAAAAAAAAAAAAAAAAAAAAAAAAAAAAAAAAAAAAAAAAAAAAAAAAAAAAAAAAAAAAAAAAAAAAAAAAAAAAAAAAAAAAAAAAAAAAAAAAAAAAAAAAAAAAAAAAAAAAAAAAAAAAAAAAAAAAAAAAAAAAAAAAAAAAAAAAAAAAAAAAAAAAAAAAAAAAAAAAAAAAAAAAAAAAAAAAAAAAAAAAAAAAAAAAAAAAAAAAAAAAAAAAAAAAAAAAAAAAAAAAAAAAAAAAAAAAAAAAAAAAAAAAAAAAAAAAAAAAAAAAAAAAAAAAAAAAAAAAAAAAAAAAAAAAAAAAAAAAAAAAAAAAAAAAAAAAAAAAAAAAAAAAAAAAAAAAAAAAAAAAAAAAAAAAAAAAAAAAAAAAAAAAAAAAAAAAAAAAACyO34QAAAP90Uk5TAAECAwQFBgcICQoLDA0ODxAREhMUFRYXGBkaGxwdHh8gISIjJCUmJygpKissLS4vMDEyMzQ1Njc4OTo7PD0+P0BBQkNERUZHSElKS0xNTk9QUVJTVFVWV1hZWltcXV5fYGFiY2RlZmdoaWprbG1ub3BxcnN0dXZ3eHl6e3x9fn+AgYKDhIWGh4iJiouMjY6PkJGSk5SVlpeYmZqbnJ2en6ChoqOkpaanqKmqq6ytrq+wsbKztLW2t7i5uru8vb6/wMHCw8TFxsfIycrLzM3Oz9DR0tPU1dbX2Nna29zd3t/g4eLj5OXm5+jp6uvs7e7v8PHy8/T19vf4+fr7/P3+6wjZNQAAEcdJREFUGBntwQdYVAe6BuB/ZgQEAVGwIAqKiqJYAupuNNYEjQ27UexYktjRtcWu2MsVS2zR2CuRuGhs2I1id+2gIlZExQKCCDPz3+fu3bvZm5mBOWdmYOac732JAAAAAAAAAAAAAAAAAAAAAAAAAAAAAAAAAAAAAAAAAAAAAAAAAAAAAAAAAAAAAAAAAAAAAAAAAAAAAAAAAAAAAAAAAAAAAAAAAAAAAAAAAAAAAAAAAAAAAAAAAAAAAAAAAAAAAAAAAAAAAAAAAAAAAAAAAAAAAAAAAAAAAAAAAAAAAACsWIlGTT//zN9HSSA7Tt2XHk3h//XuwKSmRQjkQ9FoXRr/f5821iSQB0VYIutzuDmBDNQ8w4ZcqkYgcS6Lc9iwzO8IJK3MDc5ddHEC6aqSxHl5UpFAquq+4rwlliGQprrpbIwbxQikyPk+G+dcEQIJ2sDGWk0gPd3YaNq/EkhNuXdsvKsqAolZx0KMJJCWijksRJoLwR8UKjuHwk7Orm7FPUqW8vQq5+Pl4WJPNmUjC9OfZETh5OHjH9SwRYceA0f8ELF41aao305cvPUw5V3ah8ys7BwN6/cp7dWzxDvXzp+O3b9nx8Y1yxbNnjr+u2+C6/gWU5C1qaJmYU6TlLn41G7aacCYOat2HbmU+DqTzU3z5v7FQ9t/jBjdr32jGl5OVPC2slCVSUpUpas3DOkbPmP51t/i4l/lcP7KSr6xf+X40AblVFRA/DQs1CyyfcX8m3YbOXfDwWsvNGwVcpJObo4Y1MK/COWzeSzYebJRjhU+7/D99NV7zz/KYqv1+kp05KjOdYpQ/lA+Y8EylGRTitcOGTp/x8n492xDNAm7J7X1JotrwSJUIltgV6Fx70lrDt7+wLbrzYnIsMDCZEHbWISOZM3cP2s3bMHOc880LBE5N7eObVGaLMI1k0WYStbIwb/tqB8P3clgaUo5vKCrB5nbABZjIVkVB/+QUSuPJGlY8rRX5gU7kjn9xmLMJevg4B8yemVskoblJCt2fB0lmYnqPYsxkwqYnX/I6JWxSRqWqdTd31YkcwhkUaZQgSlUtdOUnTezGRLXdHUnU41gUSZQAVBV7jBp+/VPDP+mvTy3DpkkikXpTPlKWTFkwparHxn0SJhehcRLYVHKUX7xbjNu0+VMhtxcHu1F4lRhUZIpHygqdpl7+DWDMTQn+jiQCL1YlL1kWcqqPRYdf8cgxKvZ5UiwSSzKBLKYQjX6Lj3zgUEE9S9NSaDVLIamAlmCfeDAlec/Mpjg5neFSYgDLMYeMjfnBkPXXclmMN2zIfZkvFssRiMyoxLNx+2I1zKYzaOBdmSsdBbhMplJ+Q4zYp4ymN2DPioyihuL0ZtMpqrec9GxtwyWEt+SjFGTRXhTmExQtE7o1K2XPjJY2K4ylLcgFuFWUyWJ4BjQcfy60ykM+eT9UCXlpTqL8mJVTz8FGUnhEdBq5I9HHmkZ8tnFQMpDJRbtzcF5g9vUdCMDXP0adR02a93+y09zGAqKepaKclWOTZV26/ThvTt+/nFRxMTJsxev3LDz70fOXL79KJPBKhwvTbkpySBxyY0pF64MUqcepyCDHBikb68TGaLIYZC+k85kyE0GGTjrSgZsZZCDC8VIv7EMsnDVnfRqwSAPVxxJH08GmdhCer1kkIkRpM8RBpnIaUx6zGKQi5SypKs6g2ycJD0uMchGb9I1jEE2UtxIh0c2g2wsJ13RDLKhCSQd7Rnk4yzpsHvFIB+NSMc0BvmIJh2OjxhkQ1ORdHRmkI+lpOsYg2yku5GOgByG3Hx6/fD67wd3r18ye9rEsSOHDOwb2qVdq+DG9evU8q/k4+nhVszdo2RpT6+y3j4VfCtVrlK1WkCNWkENm7fv3n/o2Knzlv60LfrQqUu3HqZksxUYRLoiGf6Q/fzG8ehNK+ZOHN6vc4v6Ncq725O5OJer1aRj/zFzVu06cjnxnZYLwl7S5faK5S07+caJqFUR4b1a1vV1pfyicq/SrNf4ZXvOP1Vz/vngQLr6s/xoX17dt2ZWeO9W9XyLUgFTlqnbbvCsDUfic9jympMeG1guPt4/uW1heNcG5e3JChXyazNq9fFnbEmRpIf9GZY07cur+1ZP6f91jeJkC5wDu0/deimNLeIe6VMyiaVI++z0hik9G5S3Jxuk8AtdfCqdza4o6VMznaXk4519S0e0reZItk7p3yvyTAabUx3Sq202S8HLuK0z+zbyUpCUqAL6bXnJ5hJK+rXMZFv2+NDKv3Ws5UJSpQiaeCqHzWEaGdDoPdsibeK++X3ruZAMuHZYncQm20qGBL1im6JO+HV2z0AnkhX/2c/ZNBfIIP+nbBuyb0fN6FbTgWSpULsYNZsggQwrsZ+tXNb1HVM6V7MjefOalMiiJVJuRmSxtXpzdEH3qiqC/6FodZdFeky5qn2Hrc+L3yI6ViD4T/YTMliU55Q7p1UatiKPoie3KUOgh8+vLMZLykvtY2wNtAk7xgW7ExjWmUV4Q3kLiecCpb65aWQjV4I8VGIRHpARCg17zQUjI271939xJDBGfRbhOBnFadB1zmfJB+Z0q6okMFp7FmEjGavx7hzOH+pb28Y2L0Ug0CAWYSYZz2vmQ7awtDPLB9Z1JBAjnEUYSILUnvYPtpDHMTM7VVIQiNaDRWhBQvmOOqVmc8p5EPvTqGbFCUz0JYtQmkRwbjZxfyqbSvPk1MbpfRv7qAjMojoLd5fEUlTpt+bcKxbjxbntswcGV7InMCt3Fm4VmcatbujULXEvNZwXbfrzhMsnohYOaVXNicAyHrFg3ckslO5VGrTrP27B+i0798QcPHrq3MVLJ/dtX7No2t++DW3bJKhKGRcFgcWtYcE8CaSjIwsVTyAhRXNYoPkEUnKEhdH4EkhJMAuzn0BazrMgrQikJYSFuKAkkBbFZTaeOpBAavwz2GhLCaRnEBvriSuBBEWxcdJqEUiR2zU2RnYwgTQVi+O8afsQSJXzCc5LZicC6XKM4ty9qEcgaaGpnIuT5QkkrnQ0G5Lck0AGWh7Qsh5v5xclkIfKS97xn1wZ4EQgH07NI05l8b8kbf62GoHs2PsEtejern4lVwIAAAAAAAAAAAAAAAAA+D/Odb9q9JfPqrsQyI7q60UHHmn5n9RXl4f6EMhI9fnP+U/Od1ERyEPjC6zPg6FOBNJXegsb8roLgcSpRrznXKx1IpAyh184d7drEkiXcyznJasdgVS5n+e8ZTUjkCaXm2yM9HoEkrSFjZNanUCC+rCx7toTSI5fOhttIoHUFLrCxsusQCAxfVmI/QTSUug+C/Ilwb8pVHaFnZxd3dxLlPL08i7vW8mvsncpN0cV2ZB+LMx2kpPCxcv61a7/VUj3/sPGTV+w4uedMcfirt9//jbtQ2ZWjoYNUWe8efEo4cbls8cP/n33lnUrl8ybMWZAx6a1vJ3J2hR6wMJ8LEYS5uJdq0mHsNERK7YdOJ+Q8kHD5padcufsvs2R04b3al2/ail7KnD9WaghJCWFPGs26RA2OmLFtgNx8S9zOJ99eHR2+7zBbWoUpQKiTGShLpPtK16tWeio+ZsOX0/RsHV4d33finHd6nspKX99ycIVI9tUpGKDTkNmro25+PgTW63sxBMbZw5o7k35ZBML15BsSvHaIUPn7zh9L51tydsTkWFBhcnSnD+wcN+TLbD3bdJ70pqDtz+w7VLf2jbua0+yoD4swgqyZh6B7Ycv3BX3XMtS8fLIgp417MgijrEIJ8ka2VdtE77i0J0MlqZPVzeMqEHm5q1lES6RVbGv2iZ8xeFENUvfi619y5I5jWAxzpF1sK/aJnzF4UQ1y8rdZe2KkrnsYTFOUwFT+bUJX3E4Uc0ypT47o5EdmYHiNYtxjAqMwrfthC1XPzJ82B8eQKYKYFEOUUHwbjlmw8UMhj8kb+lSmEwxhEVZTvmrTHD4T+fSGPR4/3OwikTbyaL0ovxSvOnQVaffMOQm+b/qkEgvWBQ/ygelW03ak8RglPhJpUkEbxbljYIsy6fDzP3PGYTI3lafBGvAohwki1FU/mbekVQGMa6EOZIw3ViUULIEVUDvJafSGEyQuqAcCTGGxXhmR2ZWuN63q85nMpju0/IyZLxIFuMHMiO3pqM231QzmM3HJaXJWHtYhEx3Mg+vNpP3PGQwu4wFJcg4F1mEtWQyhd83cw+9ZLCUD5PtyRjJLEIQmcA58JvJm+PSGSzsblMywisW7mOfoiSCQ7V2Y9aeeM6QXzaWoDw9YzE+xYxq4EhGUngEfD1s2aFEDUM+S+2voDw8ZLFyrqyZENqgrJL0c6zwecfBM9bGXHyazVBgjntS7uLZRNmJZ2Njdm1cvWTOlB9mLlyxfvuvh05dvPngHYNVSG5MubrOIG3qcQrKxSUGqfvVjQw7yyB596uSQbEM0pdSgwxZziADrz8jAwYyyMGbuqRfPQZZeF+f9HLSMMhCWgDpdZdBHu65kT47GWTigJL0+IFBLmaTHl8yyEZn0qV6xiAX6WVJ1zwG2dhNuqozyEdz0nWJQTYSHEjHcAb5mEQ6PLIZZCOzLOnYyyAf80hHYwb5eFuEdOxgkI+hpKPsBwbZuK8kHeMZ5KM96bBPYMjNp9dJN84e/mXDsrnTJ40dOXhAn+6d2n7d7It6tatX9vF0d3V0dHJ2LVqsuEeJUqXLeJXzKe9bsbKff+AXwe26hQ0ZM2Vu5Notew6cvHAzMVXDBe9X0tWS4Q8fn16L3b1+6azxQ/t0DP48wMfdnsxF4eZbJ/ib735YsC76xPUnGVwQ0u1J116Wt6yn147uXDFjeGjzIJ8ilG8cPINCvo/4+fCtt5yPmpGuChksO9qUKzGrZgzv0SLIx5kKWpHKTXqMjYyKS2XLW0h6dNayTGTeO7ltwcgu9X3syBq5f953dtSNj2xBt0ifqSxp2pQrMasmh7UIKEa2QOnTfOjSQ0lsGd6kh2I3S1LymU3TejXwsSdbVOyr8VEP2ew6kD5OV1hKsu7uXxYeEuBENs+jxcToJ2xO40mvco9ZCl6d3xbRr3E5JUlKqdbz/8Hm8jPp5x3PtuzpkZVjOtZ2Jcny7Lv9NZvDWTKg5DW2RdpHBxaG/bUoyYCy3uTf1WyqVDLE7Xe2KZoHMfP61HUmWXELO8cm8iBDihxi26COj57V4zNHkqeAJalsCl8ySDVVzdYt+3bUjG41HUjeHEKPaVk0P8pFgyS2VumnI/vUsCP4J79oFqsa5aboDrY+qbHzu1VREPyn1g9YnJqUu76pbEWS98/sWJ5Aj8LTs1iMQMpDscWf2Bok7Znc2pPAsEopLEI9ylPFX7hAaRN2jP3KnSAvz1iESmSEhhe4YGRdWT+8oQuBUbJZOK0DGaVJVA7nr9exC3vVKERgNDcW4QUZq2zES84f2oRdE1t7EQjkxyJcIOM59DqhZsvKOL/6+/rOBGLUZhGiSJASYTFZbBnJB+Z0q6okEK00i7CYhHLusu0tm1POg6M/jW1eksBESjUL14tEUAYMXH9XyybSPDm9aXrfJj4qAvN4xsKVJbGKt4rYn5DDIqTE7ZgzKLiyPYF5XWTB7pFpClVqOXzpgXtpnJect49vxcVGLRrauroTgWWsZMHWkHnYl6nZrOvgKUvXbti6Kzrm4NFTZ2OjN/84b9KIsK4tv6jlW8KRwPLas2DdCaTDJZuF8iSQkBMsUByBlIxkgfoQSIlzKgvyxpFAUqawIIsJpMUtjQVIK0sgMdNZgBEEUmN3iY12WUUgOZXT2UifgggkqDcbqTeBJC1lo8wgkKgFbIRNBJI1g/M0X0kgXeGfOFfZYQSSFnCJcxH/BYHEqSZksQGZE+0JpK9i5HvW4+MGHwJ5cBl6l/8kcawHgXwoag3b/YL/JXnX8EAlgewU96sf0vYvvs4EAAAAAAAAAAAAAAAAAAAAAAAAAAAAAAAAAAAAAAAAAAAAAAAAAAAAAAAAAAAAAAAAAAAAAAAAAAAAAAAAAAAAAAAAAAAAAAAAAAAAAAAAAAAAAAAAAAAAAAAAAAAAAAAAAAAAAAAAAAAAAAAAAAAAAAAAAAAAAAAAAAAAAAAAAAAAAGCl/htgs9GCbI31BgAAAABJRU5ErkJggg==;" vertex="1" parent="b9tD3Ob-u22sIeqJf-4t-95">
          <mxGeometry x="126.5" y="5.980000000000004" width="12" height="12" as="geometry" />
        </mxCell>
        <mxCell id="b9tD3Ob-u22sIeqJf-4t-97" value="Bottleneck layer" style="text;html=1;strokeColor=none;fillColor=none;align=center;verticalAlign=middle;whiteSpace=wrap;rounded=0;labelBackgroundColor=none;fontColor=none;" vertex="1" parent="1">
          <mxGeometry x="150" y="30.95" width="88" height="20" as="geometry" />
        </mxCell>
        <mxCell id="b9tD3Ob-u22sIeqJf-4t-69" value="C" style="rounded=0;whiteSpace=wrap;html=1;strokeColor=#A50040;fontColor=#ffffff;fillColor=#F00080;" vertex="1" parent="1">
          <mxGeometry x="180" y="74" width="30" height="30" as="geometry" />
        </mxCell>
        <mxCell id="b9tD3Ob-u22sIeqJf-4t-98" value="Input layer" style="text;html=1;strokeColor=none;fillColor=none;align=center;verticalAlign=middle;whiteSpace=wrap;rounded=0;labelBackgroundColor=none;fontColor=none;" vertex="1" parent="1">
          <mxGeometry y="6" width="60" height="20" as="geometry" />
        </mxCell>
        <mxCell id="b9tD3Ob-u22sIeqJf-4t-100" value="Output layer" style="text;html=1;strokeColor=none;fillColor=none;align=center;verticalAlign=middle;whiteSpace=wrap;rounded=0;labelBackgroundColor=none;fontColor=none;" vertex="1" parent="1">
          <mxGeometry x="320" y="6" width="80" height="20" as="geometry" />
        </mxCell>
      </root>
    </mxGraphModel>
  </diagram>
</mxfile>
